#!OML:ASF H:\Terrain\Patient Classification 1\Terrain2\Thursday\justin.ASF
:FULLY-SPECIFIED
:DEGREES
3771
root 16.5759 20.8206 -0.75658 240.036 -275.157 -840.751
lowerback 9.81376 -0.122984 4.85643
upperback 2.81149 0.628344 4.1091
thorax -2.5764 0.376899 1.45753
lowerneck -12.9933 -4.73258 -10.9559
upperneck 35.5108 -4.79298 6.41225
head 14.9958 -2.20429 3.95309
rclavicle -1.41137e-014 -3.89618e-014
rhumerus -30.5852 -11.7849 -76.0007
rradius 27.1241
rwrist -9.89558
rhand -24.9256 11.0803
rfingers 7.12502
rthumb 1.58344 -18.8935
lclavicle -1.41137e-014 -3.89618e-014
lhumerus -35.4179 3.57216 86.1394
lradius 26.5891
lwrist -2.68914
lhand -13.5717 19.0743
lfingers 7.12502
lthumb 12.542 48.6779
rfemur -13.4666 -6.79417 29.4474
rtibia 32.5983
rfoot -17.364 2.87015
rtoes 14.886
lfemur -14.9786 0.448077 -12.8629
ltibia 66.0543
lfoot 15.2379 -7.08409
ltoes 13.6575
3772
root 16.6841 20.8711 -0.750119 244.437 -275.452 -836.28
lowerback 9.62857 -0.073236 5.42522
upperback 2.77921 0.739327 4.13392
thorax -2.49936 0.432737 1.15306
lowerneck -12.9252 -4.71785 -10.9434
upperneck 35.5244 -4.80189 6.47752
head 14.9884 -2.19704 3.97889
rclavicle -9.93923e-016 -3.33958e-014
rhumerus -30.4012 -12.0827 -76.016
rradius 27.3646
rwrist -9.954
rhand -24.8476 11.43
rfingers 7.12502
rthumb 1.65875 -18.5433
lclavicle -9.93923e-016 -3.33958e-014
lhumerus -35.8056 3.21633 86.0853
lradius 27.0472
lwrist -1.4683
lhand -13.9847 18.8462
lfingers 7.12502
lthumb 12.1438 48.4737
rfemur -12.1076 -6.38375 29.9146
rtibia 31.0405
rfoot -16.7205 3.08929
rtoes 17.4801
lfemur -16.252 0.821504 -12.241
ltibia 67.8085
lfoot 13.6867 -7.07563
ltoes 13.4504
3773
root 16.7842 20.9198 -0.736397 239.494 -274.744 -840.868
lowerback 9.88543 -0.0519899 4.52257
upperback 2.77565 0.677809 3.88058
thorax -2.65375 0.396014 1.40021
lowerneck -12.8516 -4.66603 -10.893
upperneck 35.5917 -4.75852 6.52849
head 14.9969 -2.16366 4.00345
rclavicle 4.77083e-015 -6.36111e-015
rhumerus -30.5066 -11.0302 -76.4325
rradius 28.388
rwrist -11.1826
rhand -24.5029 11.1974
rfingers 7.12502
rthumb 1.9917 -18.7731
lclavicle 4.77083e-015 -6.36111e-015
lhumerus -36.2364 3.13817 85.9478
lradius 27.5651
lwrist -0.384203
lhand -14.2595 18.7518
lfingers 7.12502
lthumb 11.8788 48.3949
rfemur -10.3952 -5.98457 28.8919
rtibia 29.5142
rfoot -16.0473 3.54284
rtoes 23.5605
lfemur -17.2031 0.940958 -13.112
ltibia 69.3479
lfoot 12.1539 -7.209
ltoes 10.9435
3774
root 16.8902 20.9732 -0.730055 242.623 -275.057 -837.485
lowerback 9.92882 -0.0716723 4.98711
upperback 2.7864 0.707001 3.91596
thorax -2.66092 0.411426 1.17369
lowerneck -12.876 -4.62487 -10.8412
upperneck 35.6758 -4.72356 6.57845
head 15.0373 -2.13382 4.02614
rclavicle -3.77691e-015 -7.55382e-014
rhumerus -30.5791 -10.0786 -76.8521
rradius 29.4099
rwrist -12.2428
rhand -24.6617 11.1285
rfingers 7.12502
rthumb 1.8383 -18.8433
lclavicle -3.77691e-015 -7.55382e-014
lhumerus -36.5568 3.14674 85.7957
lradius 28.0086
lwrist 0.414266
lhand -14.5363 18.6417
lfingers 7.12502
lthumb 11.6119 48.3
rfemur -8.78273 -5.28082 29.1188
rtibia 28.1225
rfoot -15.9502 4.1416
rtoes 28.2131
lfemur -18.2325 1.20257 -12.5486
ltibia 70.8097
lfoot 10.9756 -7.35219
ltoes 8.6452
3775
root 16.9929 21.0094 -0.726353 250.095 -276.067 -830.048
lowerback 9.66952 -0.117942 6.23477
upperback 2.73111 0.774845 4.20158
thorax -2.56104 0.449878 0.768325
lowerneck -12.9389 -4.5324 -10.929
upperneck 35.7919 -4.58015 6.66551
head 15.0959 -2.07212 4.10946
rclavicle 1.07344e-014 4.69132e-014
rhumerus -30.3553 -9.89955 -76.9868
rradius 29.7916
rwrist -12.2767
rhand -25.0898 11.5757
rfingers 7.12502
rthumb 1.42483 -18.3993
lclavicle 1.07344e-014 4.69132e-014
lhumerus -36.8977 3.18177 85.7345
lradius 28.4907
lwrist 1.23762
lhand -14.8767 18.8113
lfingers 7.12502
lthumb 11.2837 48.4878
rfemur -7.53686 -4.79683 30.3404
rtibia 26.6689
rfoot -15.8273 4.56017
rtoes 30.5957
lfemur -19.6737 1.67849 -11.0289
ltibia 72.3348
lfoot 9.93785 -7.70377
ltoes 8.54433
3776
root 17.0905 21.0301 -0.716129 253.629 -276.547 -826.524
lowerback 9.539 -0.0863556 6.69997
upperback 2.64591 0.868627 4.39411
thorax -2.57081 0.496888 0.700043
lowerneck -12.9252 -4.51304 -11.0453
upperneck 35.9093 -4.48537 6.59713
head 15.1417 -2.05535 4.12291
rclavicle 1.19271e-014 9.54166e-015
rhumerus -30.272 -9.72243 -76.9243
rradius 30.3675
rwrist -11.9572
rhand -24.5883 11.7539
rfingers 7.12502
rthumb 1.90921 -18.2173
lclavicle 1.19271e-014 9.54166e-015
lhumerus -37.3199 3.21953 85.7477
lradius 29.1513
lwrist 2.10535
lhand -15.2209 19.0493
lfingers 7.12502
lthumb 10.9517 48.7437
rfemur -6.06786 -4.27695 30.9493
rtibia 24.7045
rfoot -15.111 4.71466
rtoes 33.971
lfemur -21.1312 2.10697 -10.2369
ltibia 73.7978
lfoot 8.89669 -7.88126
ltoes 10.5262
3777
root 17.1977 21.0412 -0.707048 254.989 -276.85 -824.951
lowerback 9.53554 0.011006 7.02975
upperback 2.63655 1.03655 4.45573
thorax -2.56775 0.581229 0.562016
lowerneck -12.8407 -4.60774 -10.9913
upperneck 35.9054 -4.61928 6.52003
head 15.1332 -2.11359 4.05787
rclavicle 1.27222e-014 3.33958e-014
rhumerus -30.3203 -9.52357 -76.868
rradius 31.211
rwrist -11.8552
rhand -23.5113 11.3858
rfingers 7.12502
rthumb 2.94936 -18.5736
lclavicle 1.27222e-014 3.33958e-014
lhumerus -37.5762 3.09022 85.762
lradius 29.733
lwrist 2.74105
lhand -15.4986 19.0682
lfingers 7.12502
lthumb 10.6839 48.7765
rfemur -4.48194 -4.31352 31.3503
rtibia 22.7527
rfoot -14.8133 4.5704
rtoes 35.1817
lfemur -22.2282 2.25838 -9.75788
ltibia 75.0542
lfoot 7.82051 -7.70417
ltoes 11.8338
3778
root 17.3042 21.032 -0.710741 255.983 -276.964 -823.749
lowerback 9.50788 0.104249 7.28443
upperback 2.62673 1.17988 4.40542
thorax -2.55019 0.65156 0.352299
lowerneck -12.7053 -4.63653 -10.871
upperneck 35.8636 -4.72536 6.57036
head 15.0901 -2.13412 4.0396
rclavicle -7.7526e-015 -3.26007e-014
rhumerus -30.2493 -9.25822 -76.9425
rradius 31.8559
rwrist -12.1379
rhand -23.1942 10.7487
rfingers 7.12502
rthumb 3.25558 -19.2062
lclavicle -7.7526e-015 -3.26007e-014
lhumerus -37.7323 3.00937 85.6279
lradius 30.0406
lwrist 3.0996
lhand -16.0201 18.7242
lfingers 7.12502
lthumb 10.1807 48.4578
rfemur -3.52918 -6.44246 31.7559
rtibia 20.8819
rfoot -14.4703 4.04369
rtoes 25.4373
lfemur -23.3225 2.30907 -9.59556
ltibia 76.219
lfoot 6.49552 -7.40466
ltoes 12.1963
3779
root 17.4003 21.0535 -0.713232 257.331 -276.298 -822.336
lowerback 9.50916 0.238396 6.76294
upperback 2.58834 1.28584 4.16008
thorax -2.5917 0.696987 0.373589
lowerneck -12.6593 -4.63783 -10.7618
upperneck 35.9139 -4.72697 6.48086
head 15.0967 -2.13083 3.98416
rclavicle 6.75868e-015 4.77083e-014
rhumerus -30.1019 -8.59668 -77.2125
rradius 32.5029
rwrist -12.6783
rhand -23.61 10.3623
rfingers 7.12502
rthumb 2.85402 -19.5983
lclavicle 6.75868e-015 4.77083e-014
lhumerus -37.8694 3.24017 85.2732
lradius 30.2693
lwrist 3.2042
lhand -16.2022 18.2679
lfingers 7.12502
lthumb 10.0051 48.0101
rfemur -2.12443 -6.19858 31.0258
rtibia 19.1494
rfoot -13.8083 4.20158
rtoes 25.6752
lfemur -24.4694 2.5699 -10.3722
ltibia 77.1084
lfoot 5.31771 -7.4746
ltoes 12.0708
3780
root 17.4897 21.0492 -0.704364 258.512 -276.428 -820.823
lowerback 9.80851 0.263622 6.8728
upperback 2.62118 1.36648 4.22028
thorax -2.71886 0.7365 0.362694
lowerneck -12.6919 -4.68596 -10.8308
upperneck 35.9772 -4.73629 6.37904
head 15.1376 -2.15708 3.95375
rclavicle -6.16232e-015 -7.95139e-016
rhumerus -30.0396 -7.70161 -77.4422
rradius 33.3707
rwrist -13.3687
rhand -24.0182 10.8622
rfingers 7.12502
rthumb 2.45978 -19.1033
lclavicle -6.16232e-015 -7.95139e-016
lhumerus -38.0946 3.1492 85.263
lradius 30.7997
lwrist 3.69837
lhand -16.411 18.3697
lfingers 7.12502
lthumb 9.80368 48.1215
rfemur -0.676766 -6.05917 31.2214
rtibia 17.4219
rfoot -13.1585 4.04288
rtoes 21.7921
lfemur -25.4884 2.90856 -10.1464
ltibia 78.0344
lfoot 4.30083 -8.32287
ltoes 9.01825
3781
root 17.5863 21.0396 -0.688842 259.884 -277.823 -818.947
lowerback 10.1909 0.148506 8.25534
upperback 2.6647 1.43984 4.59365
thorax -2.85742 0.777996 -0.0259468
lowerneck -12.6804 -4.69387 -10.9978
upperneck 36.0858 -4.72649 6.47742
head 15.1971 -2.16061 4.0339
rclavicle -9.64106e-015 -6.20208e-014
rhumerus -30.0473 -7.2399 -77.5567
rradius 34.2351
rwrist -13.6861
rhand -24.0432 11.4719
rfingers 7.12502
rthumb 2.43565 -18.494
lclavicle -9.64106e-015 -6.20208e-014
lhumerus -38.3464 2.78494 85.3979
lradius 31.3445
lwrist 4.33361
lhand -16.8241 18.7843
lfingers 7.12502
lthumb 9.40505 48.5545
rfemur 1.04556 -5.71517 32.7032
rtibia 16.2705
rfoot -13.1284 3.90639
rtoes 23.8366
lfemur -26.3498 3.16028 -8.37729
ltibia 78.8929
lfoot 3.27905 -9.0072
ltoes 4.64774
3782
root 17.6889 21.0418 -0.682137 262.085 -278.632 -816.556
lowerback 10.2724 0.171193 9.20286
upperback 2.62979 1.60166 4.73332
thorax -2.9072 0.857461 -0.422829
lowerneck -12.6186 -4.67549 -11.0873
upperneck 36.1547 -4.71929 6.61312
head 15.2228 -2.14992 4.11466
rclavicle -7.05686e-015 7.95139e-016
rhumerus -29.9996 -7.34588 -77.599
rradius 34.8938
rwrist -13.4023
rhand -23.9826 11.7285
rfingers 7.12502
rthumb 2.4942 -18.2367
lclavicle -7.05686e-015 7.95139e-016
lhumerus -38.4157 2.6413 85.336
lradius 31.5554
lwrist 4.54597
lhand -16.7923 18.9988
lfingers 7.12502
lthumb 9.43576 48.7676
rfemur 2.23618 -5.95946 33.5936
rtibia 15.058
rfoot -12.6457 4.0143
rtoes 23.9908
lfemur -27.4096 3.46874 -7.36631
ltibia 79.5892
lfoot 2.49692 -9.21227
ltoes 2.37444
3783
root 17.781 21.0411 -0.676897 264.448 -278.81 -814.195
lowerback 10.3073 0.309839 9.40896
upperback 2.54143 1.81886 4.7454
thorax -2.99751 0.957873 -0.551148
lowerneck -12.5624 -4.66252 -11.004
upperneck 36.1745 -4.72135 6.60326
head 15.2153 -2.13909 4.09695
rclavicle 9.0447e-015 2.94201e-014
rhumerus -29.9365 -7.12724 -77.6529
rradius 35.604
rwrist -13.453
rhand -23.8129 12.1267
rfingers 7.12502
rthumb 2.65803 -17.8365
lclavicle 9.0447e-015 2.94201e-014
lhumerus -38.5177 2.58545 85.3006
lradius 31.8059
lwrist 4.71662
lhand -17.1348 18.9293
lfingers 7.12502
lthumb 9.10531 48.7128
rfemur 3.2336 -5.44022 33.8238
rtibia 13.9202
rfoot -12.0949 4.07393
rtoes 27.7148
lfemur -28.6373 3.95917 -7.12626
ltibia 80.0758
lfoot 1.54421 -9.95792
ltoes -1.26096
3784
root 17.8604 21.023 -0.670464 265.866 -279.334 -812.69
lowerback 10.5302 0.318682 9.85036
upperback 2.4548 1.93337 4.89889
thorax -3.19518 1.00649 -0.651527
lowerneck -12.4785 -4.62724 -10.9068
upperneck 36.2139 -4.66099 6.49803
head 15.2001 -2.11282 4.04677
rclavicle 1.14301e-014 6.36111e-014
rhumerus -29.7894 -6.42684 -77.797
rradius 36.4224
rwrist -13.9515
rhand -23.7503 12.307
rfingers 7.12502
rthumb 2.71847 -17.6554
lclavicle 1.14301e-014 6.36111e-014
lhumerus -38.6555 2.79411 85.1987
lradius 32.0866
lwrist 4.76398
lhand -17.798 18.5745
lfingers 7.12502
lthumb 8.46531 48.3848
rfemur 4.26248 -4.73413 34.4538
rtibia 12.8654
rfoot -11.9603 3.98015
rtoes 30.2733
lfemur -29.8807 4.35066 -6.48218
ltibia 80.4546
lfoot 0.470607 -10.7138
ltoes -4.98843
3785
root 17.9671 21.0104 -0.678479 266.239 -279.62 -812.401
lowerback 10.1673 0.267154 10.2158
upperback 2.43673 1.86352 5.00082
thorax -3.01038 0.979228 -0.729505
lowerneck -12.4496 -4.57731 -10.9634
upperneck 36.2762 -4.49659 6.30288
head 15.2016 -2.07625 4.00282
rclavicle 4.96962e-014 1.24042e-013
rhumerus -29.444 -5.71249 -77.8942
rradius 37.0656
rwrist -14.3762
rhand -24.0657 11.9196
rfingers 7.12502
rthumb 2.4139 -18.0465
lclavicle 4.96962e-014 1.24042e-013
lhumerus -38.6559 3.37861 85.0326
lradius 32.2601
lwrist 4.44216
lhand -17.9701 18.3456
lfingers 7.12502
lthumb 8.29922 48.1626
rfemur 4.90358 -5.8171 34.6629
rtibia 11.9456
rfoot -12.1911 4.5462
rtoes 23.1584
lfemur -31.1126 4.36355 -6.29406
ltibia 80.6402
lfoot -0.0489233 -10.5089
ltoes -3.50138
